# xmcd
#
# Track frame offsets:
#	150
#	9429
#	26014
#	38956
#	54024
#	68998
#	87203
#	106334
#	122751
#	148040
#	166060
#	180521
#	195472
#	208921
#	228052
#	246886
#	265070
#	280215
#
# Disc length: 4137 seconds
#
# Revision: 1
# Processed by: cddbd v1.5.2PL0 Copyright (c) Steve Scherf et al.
# Submitted via: audiograbber 1.83.01
#
DISCID=ee102712
DTITLE=Stare Dobre Malzenstwo - ODWET POZOROW
DYEAR=2009
DGENRE=
TTITLE0=SAMOKONTROLA
TTITLE1=MLYNY BOZE
TTITLE2=ROZDWOJENIE PRAWDY
TTITLE3=ZEMSTA SLOW
TTITLE4=OFERTA HANDLOWA
TTITLE5=WOLNOSC JEST WIEZIENIEM
TTITLE6=WIEM
TTITLE7=ODWET POZOROW
TTITLE8=TRYUMF SPRAWIEDLIWOSCI
TTITLE9=NIE BOJ SIE KOBIET
TTITLE10=PYTANIA
TTITLE11=BZOWY MOLOCH
TTITLE12=DZIEN KAPITULACJI
TTITLE13=MARTWA NATURA
TTITLE14=DOBRA WIADOMOSC
TTITLE15=SWIADOMOSC
TTITLE16=WSZYSTKO JEST OKEJ
TTITLE17=NARKOTYKI, NARKOMANI, NARKOMANIE
EXTD=18.09.2009
EXTT0=
EXTT1=
EXTT2=
EXTT3=
EXTT4=
EXTT5=
EXTT6=
EXTT7=
EXTT8=
EXTT9=
EXTT10=
EXTT11=
EXTT12=
EXTT13=
EXTT14=
EXTT15=
EXTT16=
EXTT17=
PLAYORDER=
